<svg
	xmlns="http://www.w3.org/2000/svg"
	xmlns:xlink="http://www.w3.org/1999/xlink" version="1.1" id="Layer_1" x="0px" y="0px" style="enable-background:new 0 0 792 612;" xml:space="preserve" viewBox="169 169.6 453 272.4">
	<g>
		<path d="M287.5,442l45.5-6.5c0.7,0-0.7,0,0,0l-36.7-20.2L287.5,442z"></path>
	</g>
	<polygon points="472.6,380.3 459.3,422.5 488.8,413.7 499.9,378.4 "></polygon>
	<polygon points="519.1,229.5 529.5,196.2 506.9,181.5 494.3,222 "></polygon>
	<g>
		<path d="M398.6,193.2l21.7,6.5l0.4-30.1l-38.2,7.7l-5.2,9.5C377.3,186.8,392.6,191.5,398.6,193.2"></path>
		<path d="M252.5,299.4l9.6-30.2l-24.4-6.5c-2.6,8.3-9.3,28.4-12,36.7L252.5,299.4z"></path>
	</g>
	<polygon points="207.3,254.9 182.7,248.3 175.7,271.2 195.8,292.3 "></polygon>
	<polygon points="175.6,172.4 169,193.2 199.8,193.2 184.6,241.7 209.2,248.2 226.3,193.2 253.1,193.1 259.6,172.3 "></polygon>
	<g>
		<path d="M285.8,191.9l8.9,0c6.6,0,13.2,1.6,13.2,9.4c0,9.6-6.9,25.8-18.3,25.8l-14.6,0L285.8,191.9z M268.8,246.9   c3-0.2,6.1-0.2,9.1-0.2c5,0,12.5,0.3,12.5,7.3c0,4.8-1.8,10.9-3.2,15.5c-2.7,9.4-5.9,18.9-6.4,28.5l27.6,0   c-0.7-15.5,8.9-29,8.9-44.3c0-10.3-7.8-14.4-16.9-16l2.7-0.4c19.8-2.7,30.8-18.2,30.8-37.6c0-21.6-18-27.6-36.4-27.6l-31.7,0   c-9,28-17.6,56.1-26.3,84.2l24.4,6.5L268.8,246.9z"></path>
		<path d="M393.3,251.4h-0.2l-25.6,0c9.2-17.5,18.1-35,26-53.1l-18.4-5.6l-59.4,105.5l27.8,0l14.2-26.9l34,0l-1,27.1l26.7,0l2.1-92.1   l-23-7C394.5,216.6,393.3,234.1,393.3,251.4"></path>
	</g>
	<polygon points="469.9,298.2 532.6,298.1 539.4,277.6 503.6,277.7 516.8,235.8 492,228.3 "></polygon>
	<g>
		<path d="M350.2,358h-10l10.5-32.6c7.8,0.4,22.6-2.1,22.6,10C373.6,349.7,364.5,358,350.2,358 M352.4,405c-5,7.5-10.3,8-18.7,8   h-10.9l11.9-37c8.7,0.3,24.2-1.8,24.2,11C358.9,392.8,355.6,400.4,352.4,405 M398.3,331.1c0-19.1-14.8-24.9-31.5-24.9h-35.1   l-32.9,103l41.9,22.8c25.1-1,42.7-19.5,42.7-45c0-9.8-6.1-17.5-15.5-20.1C386.4,362.7,398.3,350.7,398.3,331.1"></path>
		<path d="M451.7,216.2l-26.6,89l-23.5,72.2l28.2-2.2l20.4-64.2l0,0l27.5-87C473.9,222.9,458.7,218,451.7,216.2"></path>
	</g>
	<polygon points="515.7,327.2 542.4,327.2 549,306.4 464.9,306.4 458.3,327.2 489.2,327.2 474.7,373.5 501.6,371.7 "></polygon>
	<g>
		<path d="M617.9,346.1c1.6-3.7,4.1-12.3,4.1-16.2c0-19.4-18.9-24.7-34.9-24.7c-27.6,0-44,19.2-44,45.9c0,3.9,3.5,13.5,10.6,16.6   l33.2-2.2c-5.6-4.8-15.6-16-15.6-22c0-8.2,4.6-18.9,14-18.9c6.4,0,10.3,1.8,10.3,8.7c0,4.5-2.1,8.6-3.4,12.8H617.9z"></path>
		<path d="M574.6,396c1.3,10.4-10,22.5-20.8,22.5c-6.1,0-9.1-4.8-9.1-10.3c0.2-4.1,1.6-9.4,3.7-13h-0.2H521   c-2.1,5.5-3.9,11.8-3.9,17.6c0,20.1,17.6,25.3,34.4,25.3c17.4,0,31.9-3.4,41-19.6c4.1-7.3,8.7-17.8,8.4-26.4   c-0.4-10.6-3.3-14.1-9.5-20.6l-32.3,2.2C568,379.4,573.5,386.5,574.6,396"></path>
		<path d="M286.3,316.1c0,1.6-1.8,6.8-2.4,8.6l-2.8,8.7c-1.1,3.3-2.4,7-6.6,7c-2.3,0-3.9-1.4-3.9-3.8c0-3.2,2.5-9.1,3.5-12.3   c1-3.3,2.4-9.8,6-11c0.8-0.3,1.7-0.4,2.6-0.4C284.4,312.8,286.3,314.3,286.3,316.1L286.3,316.1z M282.8,306.9   c-12.6,0-14.4,9.3-17.5,19.1c-1,3.5-3,7.9-3,11.6c0,7.2,6.3,8.5,12.2,8.5c7.2,0,11-2.4,13.6-9.1c1.7-4.6,6.3-17.4,6.3-21.8   C294.4,308.9,288,306.9,282.8,306.9"></path>
	</g>
	<polygon points="320.1,313.4 322.2,307.1 302.3,307.1 290.3,345.7 298.7,345.7 303.9,329.1 314.7,329.1 316.6,322.8 305.7,322.8   308.7,313.4 "></polygon>
</svg>